<svg xmlns="http://www.w3.org/2000/svg" viewBox="0 0 128 128">
    <path fill="#FEB956" d="M84.7 23.44C83.8 23.78 83.2 24.64 83.2 25.6C83.2 26.56 83.8 27.42 84.7 27.76L96 32L100.24 43.3C100.58 44.2 101.44 44.8 102.4 44.8C103.36 44.8 104.22 44.2 104.56 43.3L108.8 32L120.1 27.76C121 27.42 121.6 26.56 121.6 25.6C121.6 24.64 121 23.78 120.1 23.44L108.8 19.2L104.56 7.9C104.22 7 103.36 6.4 102.4 6.4C101.44 6.4 100.58 7 100.24 7.9L96 19.2L84.7 23.44zM47.7 27.46C47.18 26.32 46.04 25.6 44.8 25.6C43.56 25.6 42.42 26.32 41.9 27.46L31.28 50.46L8.28 61.08C7.12 61.62 6.4 62.76 6.4 64C6.4 65.24 7.12 66.38 8.26 66.9L31.26 77.52L41.88 100.52C42.4 101.66 43.54 102.38 44.78 102.38C46.02 102.38 47.16 101.66 47.68 100.52L58.3 77.52L81.3 66.9C82.44 66.38 83.16 65.24 83.16 64C83.16 62.76 82.44 61.62 81.3 61.1L58.3 50.48L47.68 27.48zM89.6 96L78.3 100.24C77.4 100.58 76.8 101.44 76.8 102.4C76.8 103.36 77.4 104.22 78.3 104.56L89.6 108.8L93.84 120.1C94.18 121 95.04 121.6 96 121.6C96.96 121.6 97.82 121 98.16 120.1L102.4 108.8L113.7 104.56C114.6 104.22 115.2 103.36 115.2 102.4C115.2 101.44 114.6 100.58 113.7 100.24L102.4 96L98.16 84.7C97.82 83.8 96.96 83.2 96 83.2C95.04 83.2 94.18 83.8 93.84 84.7L89.6 96z"/>
</svg>