<svg xmlns="http://www.w3.org/2000/svg" viewBox="0 0 32 32">
    <path fill="#FEB956" d="M21.175 5.86C20.95 5.945 20.8 6.16 20.8 6.4C20.8 6.64 20.95 6.855 21.175 6.94L24 8L25.06 10.825C25.145 11.05 25.36 11.2 25.6 11.2C25.84 11.2 26.055 11.05 26.14 10.825L27.2 8L30.025 6.94C30.25 6.855 30.4 6.64 30.4 6.4C30.4 6.16 30.25 5.945 30.025 5.86L27.2 4.8L26.14 1.975C26.055 1.75 25.84 1.6 25.6 1.6C25.36 1.6 25.145 1.75 25.06 1.975L24 4.8L21.175 5.86zM11.925 6.865C11.795 6.58 11.51 6.4 11.2 6.4C10.89 6.4 10.605 6.58 10.475 6.865L7.82 12.615L2.07 15.27C1.78 15.405 1.6 15.69 1.6 16C1.6 16.31 1.78 16.595 2.065 16.725L7.815 19.38L10.47 25.13C10.6 25.415 10.885 25.595 11.195 25.595C11.505 25.595 11.79 25.415 11.92 25.13L14.575 19.38L20.325 16.725C20.61 16.595 20.79 16.31 20.79 16C20.79 15.69 20.61 15.405 20.325 15.275L14.575 12.62L11.92 6.87zM22.4 24L19.575 25.06C19.35 25.145 19.2 25.36 19.2 25.6C19.2 25.84 19.35 26.055 19.575 26.14L22.4 27.2L23.46 30.025C23.545 30.25 23.76 30.4 24 30.4C24.24 30.4 24.455 30.25 24.54 30.025L25.6 27.2L28.425 26.14C28.65 26.055 28.8 25.84 28.8 25.6C28.8 25.36 28.65 25.145 28.425 25.06L25.6 24L24.54 21.175C24.455 20.95 24.24 20.8 24 20.8C23.76 20.8 23.545 20.95 23.46 21.175L22.4 24z"/>
</svg>