<svg xmlns="http://www.w3.org/2000/svg" viewBox="0 0 48 48">
    <path fill="#FEB956" d="M31.7625 8.79C31.425 8.9175 31.2 9.24 31.2 9.6C31.2 9.96 31.425 10.2825 31.7625 10.41L36 12L37.59 16.2375C37.7175 16.575 38.04 16.8 38.4 16.8C38.76 16.8 39.0825 16.575 39.21 16.2375L40.8 12L45.0375 10.41C45.375 10.2825 45.6 9.96 45.6 9.6C45.6 9.24 45.375 8.9175 45.0375 8.79L40.8 7.2L39.21 2.9625C39.0825 2.625 38.76 2.4 38.4 2.4C38.04 2.4 37.7175 2.625 37.59 2.9625L36 7.2L31.7625 8.79zM17.8875 10.2975C17.6925 9.87 17.265 9.6 16.8 9.6C16.335 9.6 15.9075 9.87 15.7125 10.2975L11.73 18.9225L3.105 22.905C2.67 23.1075 2.4 23.535 2.4 24C2.4 24.465 2.67 24.8925 3.0975 25.0875L11.7225 29.07L15.705 37.695C15.9 38.1225 16.3275 38.3925 16.7925 38.3925C17.2575 38.3925 17.685 38.1225 17.88 37.695L21.8625 29.07L30.4875 25.0875C30.915 24.8925 31.185 24.465 31.185 24C31.185 23.535 30.915 23.1075 30.4875 22.9125L21.8625 18.93L17.88 10.305zM33.6 36L29.3625 37.59C29.025 37.7175 28.8 38.04 28.8 38.4C28.8 38.76 29.025 39.0825 29.3625 39.21L33.6 40.8L35.19 45.0375C35.3175 45.375 35.64 45.6 36 45.6C36.36 45.6 36.6825 45.375 36.81 45.0375L38.4 40.8L42.6375 39.21C42.975 39.0825 43.2 38.76 43.2 38.4C43.2 38.04 42.975 37.7175 42.6375 37.59L38.4 36L36.81 31.7625C36.6825 31.425 36.36 31.2 36 31.2C35.64 31.2 35.3175 31.425 35.19 31.7625L33.6 36z"/>
</svg>