<svg xmlns="http://www.w3.org/2000/svg" viewBox="0 0 16 16">
    <path fill="#FEB956" d="M10.588 2.93C10.475 2.9725 10.4 3.08 10.4 3.2C10.4 3.32 10.475 3.4275 10.588 3.47L12 4L12.53 5.4125C12.5725 5.525 12.68 5.6 12.8 5.6C12.92 5.6 13.0275 5.525 13.07 5.4125L13.6 4L15.0125 3.47C15.125 3.4275 15.2 3.32 15.2 3.2C15.2 3.08 15.125 2.9725 15.0125 2.93L13.6 2.4L13.07 0.9875C13.0275 0.875 12.92 0.8 12.8 0.8C12.68 0.8 12.5725 0.875 12.53 0.9875L12 2.4L10.588 2.93zM5.9625 3.4325C5.8975 3.29 5.755 3.2 5.6 3.2C5.445 3.2 5.3025 3.29 5.2375 3.4325L3.91 6.3075L1.035 7.635C0.89 7.7025 0.8 7.845 0.8 8C0.8 8.155 0.89 8.2975 1.0325 8.3625L3.9075 9.69L5.235 12.565C5.3 12.7075 5.4425 12.7975 5.5975 12.7975C5.7525 12.7975 5.895 12.7075 5.96 12.565L7.2875 9.69L10.1625 8.3625C10.305 8.2975 10.395 8.155 10.395 8C10.395 7.845 10.305 7.7025 10.1625 7.6375L7.2875 6.31L5.96 3.435zM11.2 12L9.7875 12.53C9.675 12.5725 9.6 12.68 9.6 12.8C9.6 12.92 9.675 13.0275 9.7875 13.07L11.2 13.6L11.73 15.0125C11.7725 15.125 11.88 15.2 12 15.2C12.12 15.2 12.2275 15.125 12.27 15.0125L12.8 13.6L14.2125 13.07C14.325 13.0275 14.4 12.92 14.4 12.8C14.4 12.68 14.325 12.5725 14.2125 12.53L12.8 12L12.27 10.5875C12.2275 10.475 12.12 10.4 12 10.4C11.88 10.4 11.7725 10.475 11.73 10.5875L11.2 12z"/>
</svg>